<svg width="16" height="9" viewBox="0 0 16 9" fill="none" xmlns="http://www.w3.org/2000/svg">
<path d="M14.2475 0.6574L7.99997 6.7474L1.75247 0.6574C1.64085 0.548372 1.49101 0.487334 1.33497 0.487334C1.17894 0.487334 1.0291 0.548372 0.917473 0.6574C0.863426 0.710356 0.820488 0.773562 0.791176 0.84332C0.761863 0.913078 0.746765 0.987984 0.746765 1.06365C0.746765 1.13932 0.761863 1.21422 0.791176 1.28398C0.820488 1.35374 0.863426 1.41694 0.917473 1.4699L7.56372 7.9499C7.68044 8.06367 7.83698 8.12734 7.99997 8.12734C8.16296 8.12734 8.31951 8.06367 8.43622 7.9499L15.0825 1.47115C15.1369 1.41816 15.1802 1.35479 15.2097 1.2848C15.2392 1.21481 15.2545 1.13962 15.2545 1.06365C15.2545 0.987683 15.2392 0.912485 15.2097 0.842496C15.1802 0.772507 15.1369 0.709145 15.0825 0.65615C14.9709 0.547122 14.821 0.486084 14.665 0.486084C14.5089 0.486084 14.3591 0.547122 14.2475 0.65615V0.6574Z" fill="#FDFDFD"/>
</svg>
